<?xml version="1.0" encoding="UTF-8" standalone="no"?>
<!-- Created with Inkscape (http://www.inkscape.org/) -->

<svg
   xmlns:dc="http://purl.org/dc/elements/1.1/"
   xmlns:cc="http://creativecommons.org/ns#"
   xmlns:rdf="http://www.w3.org/1999/02/22-rdf-syntax-ns#"
   xmlns:svg="http://www.w3.org/2000/svg"
   xmlns="http://www.w3.org/2000/svg"
   xmlns:sodipodi="http://sodipodi.sourceforge.net/DTD/sodipodi-0.dtd"
   xmlns:inkscape="http://www.inkscape.org/namespaces/inkscape"
   width="210mm"
   height="297mm"
   viewBox="0 0 210 297"
   version="1.1"
   id="svg8"
   inkscape:version="0.92.3 (2405546, 2018-03-11)"
   sodipodi:docname="LOGO La Canchita.svg">
  <defs
     id="defs2" />
  <sodipodi:namedview
     id="base"
     pagecolor="#ffffff"
     bordercolor="#666666"
     borderopacity="1.0"
     inkscape:pageopacity="0.0"
     inkscape:pageshadow="2"
     inkscape:zoom="0.36323039"
     inkscape:cx="-652.8619"
     inkscape:cy="602.91302"
     inkscape:document-units="mm"
     inkscape:current-layer="layer1"
     showgrid="false"
     inkscape:window-width="1920"
     inkscape:window-height="986"
     inkscape:window-x="-11"
     inkscape:window-y="-11"
     inkscape:window-maximized="1" />
  <metadata
     id="metadata5">
    <rdf:RDF>
      <cc:Work
         rdf:about="">
        <dc:format>image/svg+xml</dc:format>
        <dc:type
           rdf:resource="http://purl.org/dc/dcmitype/StillImage" />
        <dc:title />
      </cc:Work>
    </rdf:RDF>
  </metadata>
  <g
     inkscape:label="Layer 1"
     inkscape:groupmode="layer"
     id="layer1">
    <path
       style="fill:#800000;fill-opacity:1;stroke:none;stroke-width:7.35767078;stroke-miterlimit:4;stroke-dasharray:none;stroke-opacity:1"
       d=""
       id="path944"
       inkscape:connector-curvature="0"
       transform="scale(0.26458333)" />
    <g
       id="g914"
       inkscape:export-xdpi="96"
       inkscape:export-ydpi="96">
      <path
         inkscape:connector-curvature="0"
         id="path924"
         d="m -333.26142,92.639589 c 1.05474,-5.622177 6.53933,-17.304808 11.25845,-23.981376 1.21099,-1.713298 2.20632,-3.630605 2.21185,-4.260678 0.007,-0.803091 0.16326,-0.904359 0.52258,-0.338728 0.28188,0.443774 3.44828,1.404422 7.03645,2.134777 9.58976,1.951953 32.62697,8.013601 33.571,8.833341 0.0946,0.08216 0.91971,4.103221 1.83353,8.9357 0.91382,4.832471 1.81494,9.302509 2.00248,9.933422 0.32121,1.080584 -1.37631,1.147108 -29.27314,1.147108 h -29.61411 z"
         style="fill:#000000;fill-opacity:1;stroke:none;stroke-width:4.95487595;stroke-miterlimit:4;stroke-dasharray:none;stroke-opacity:1" />
      <path
         inkscape:connector-curvature="0"
         id="path926"
         d="m -195.87224,55.300311 c -0.0938,-1.673095 -25.23824,-10.602075 -39.2867,-13.95099 -3.01811,-0.719466 -5.60133,-1.421972 -5.74048,-1.561123 -0.13915,-0.139151 -0.69315,-3.913315 -1.2311,-8.387033 -1.61996,-13.471836 -4.26061,-30.3462944 -4.93998,-31.56775507 -0.48584,-0.87351873 -0.39569,-1.14710533 0.378,-1.14710533 0.55882,0 3.98362,-1.0329553 7.6107,-2.2954554 7.42093,-2.5830593 16.10635,-4.4654834 25.79756,-5.5912086 3.60519,-0.4187762 6.7716,-1.1016116 7.03646,-1.5174116 0.32859,-0.515832 0.49014,-0.443644 0.50853,0.227233 0.0148,0.5407782 1.43999,1.9411658 3.16707,3.1119726 5.92569,4.0171015 16.77191,15.7378832 23.96134,25.8934044 1.72275,2.433503 3.4751,4.43352 3.8941,4.444482 0.41901,0.01097 0.27455,0.304403 -0.32101,0.652088 -0.59555,0.347686 -1.89689,2.034793 -2.89187,3.749128 -0.99499,1.714335 -5.19018,8.278675 -9.32265,14.587425 -4.13247,6.308748 -7.75317,12.060663 -8.046,12.782029 -0.29283,0.72137 -0.55112,0.978015 -0.57397,0.57032 z"
         style="fill:#000000;fill-opacity:1;stroke:none;stroke-width:4.95487595;stroke-miterlimit:4;stroke-dasharray:none;stroke-opacity:1" />
      <path
         inkscape:connector-curvature="0"
         id="path928"
         d="m -326.90664,22.190157 c -0.0586,-0.96723 -0.61159,-1.933631 -1.25199,-2.187899 -2.08886,-0.829343 -13.55102,-1.135008 -16.53333,-0.440901 -1.61255,0.375307 -3.06548,0.548835 -3.22869,0.38562 -0.56724,-0.567242 8.60368,-13.4433755 13.63042,-19.13731807 9.83881,-11.14477393 21.68219,-20.11396193 35.7644,-27.08496893 4.31079,-2.13394 8.02249,-3.87989 8.24822,-3.87989 0.47829,0 0.41117,-0.697412 0.97784,10.160075 l 0.44475,8.521354 -3.79767,1.6103042 c -9.04388,3.8348322 -18.94819,12.002934 -28.53247,23.5307848 -3.41336,4.105574 -5.18374,6.813219 -5.35732,8.193609 -0.22764,1.810122 -0.27205,1.850297 -0.36416,0.32923 z"
         style="fill:#000000;fill-opacity:1;stroke:none;stroke-width:4.95487595;stroke-miterlimit:4;stroke-dasharray:none;stroke-opacity:1" />
      <path
         inkscape:connector-curvature="0"
         id="path930"
         d="m -137.09682,75.737059 c -0.41063,-8.541234 -3.2863,-20.460718 -7.9621,-33.002523 l -3.00608,-8.063124 1.63967,-2.412985 c 0.90181,-1.327141 1.6527,-2.860709 1.66863,-3.407928 0.0916,-3.146235 5.63004,11.524473 8.28541,21.947162 1.41981,5.57298 1.71904,8.488908 1.99755,19.465765 0.31908,12.575823 0.29381,12.908332 -0.97368,12.812855 -1.1906,-0.08968 -1.33087,-0.713826 -1.6494,-7.339222 z"
         style="fill:#000000;fill-opacity:1;stroke:none;stroke-width:4.95487595;stroke-miterlimit:4;stroke-dasharray:none;stroke-opacity:1" />
      <path
         inkscape:connector-curvature="0"
         id="path932"
         d="m -320.60141,62.020151 c -1.05892,-3.343214 -3.28566,-12.532452 -3.90959,-16.133982 -1.0182,-5.877311 -1.95596,-14.192012 -2.25342,-19.98014 -0.0931,-1.810952 -0.0405,-2.749784 0.19998,-3.572943 l 0.32621,-1.116546 0.0199,1.601431 c 0.0862,6.912561 1.81823,20.060093 3.94623,29.955042 0.65779,3.058664 2.58539,10.266696 2.87388,10.746553 0.0415,0.06913 -0.0574,0.248541 -0.22001,0.398711 -0.24123,0.222851 -0.42197,-0.12603 -0.98325,-1.898126 z"
         style="fill:#000000;fill-opacity:1;stroke:none;stroke-width:1.68800461;stroke-miterlimit:4;stroke-dasharray:none;stroke-opacity:1" />
      <path
         inkscape:connector-curvature="0"
         id="path934"
         d="m -278.3845,75.887355 c -0.0141,-0.267572 -0.17552,-0.636332 -0.35865,-0.819462 -0.18313,-0.183133 -0.2505,-0.36617 -0.1497,-0.406743 0.10079,-0.04057 1.1949,-1.249257 2.43136,-2.685966 5.19593,-6.037417 18.03708,-17.927154 32.8578,-30.423332 l 2.09173,-1.763654 -0.12289,-2.251597 -0.12288,-2.251596 0.33532,2.121433 c 0.18443,1.16679 0.43313,2.221076 0.55267,2.342859 0.11953,0.121784 0.58999,0.34232 1.04546,0.490083 l 0.82813,0.268659 -1.00555,-0.116374 -1.00556,-0.116373 -4.2422,3.604838 c -2.33321,1.982661 -5.58222,4.778919 -7.22,6.213906 -1.63778,1.434985 -3.94903,3.449139 -5.1361,4.475897 -3.92844,3.397884 -11.31889,10.480069 -15.25316,14.616919 -5.32238,5.596426 -5.15299,5.395146 -5.33627,6.341259 -0.0901,0.465156 -0.17538,0.626815 -0.18951,0.359244 z"
         style="fill:#000000;fill-opacity:1;stroke:none;stroke-width:1.68800461;stroke-miterlimit:4;stroke-dasharray:none;stroke-opacity:1" />
      <path
         inkscape:connector-curvature="0"
         id="path936"
         d="m -248.59843,-1.4855981 c -3.83433,-2.254268 -10.88336,-5.2767359 -15.4894,-6.641501 -6.15243,-1.8229628 -12.98519,-2.8538189 -21.70257,-3.2742579 l -3.0257,-0.14593 -0.39327,-7.70334 c -0.21629,-4.236836 -0.35105,-7.74556 -0.29944,-7.797163 0.21565,-0.215647 0.80796,8.862928 0.81942,12.559522 l 0.007,2.257712 3.40547,0.155108 c 13.06218,0.59494 22.94556,2.918148 32.43562,7.624383 4.9708,2.4650785 5.78075,2.9591227 5.52105,3.367653 -0.11183,0.17590726 -0.50568,0.051982 -1.27817,-0.4021861 z"
         style="fill:#000000;fill-opacity:1;stroke:none;stroke-width:1.68800461;stroke-miterlimit:4;stroke-dasharray:none;stroke-opacity:1" />
      <path
         inkscape:connector-curvature="0"
         id="path938"
         d="m -145.70114,26.631784 c -1.15706,-2.407603 -5.8076,-10.475004 -7.43409,-12.896093 -4.0032,-5.9589123 -8.34513,-11.2571221 -13.60592,-16.6024951 -8.24817,-8.3807999 -15.42531,-13.8947079 -25.69508,-19.7404849 -4.98584,-2.838045 -11.25082,-5.862157 -12.14523,-5.862508 -0.1772,-6.9e-5 -0.22648,1.424251 -0.17191,4.968624 0.0521,3.384034 -0.0369,6.165629 -0.27913,8.721573 -0.19561,2.064067 -0.35566,3.860052 -0.35566,3.991076 0,0.163552 -0.0939,0.160265 -0.29967,-0.0105 -0.16483,-0.136792 -0.37994,-0.174219 -0.47804,-0.08317 -0.0981,0.09105 -0.11967,-0.08568 -0.0479,-0.392729 0.60582,-2.593548 1.01671,-15.531656 0.547,-17.223828 -0.18074,-0.651108 -0.52086,-0.799512 -6.86723,-2.996278 -7.6676,-2.654107 -15.34098,-4.282066 -25.0106,-5.306164 -0.42987,-0.04552 0.54326,-0.09886 2.16253,-0.118513 2.35938,-0.02864 3.73425,0.09734 6.92257,0.634332 4.57129,0.769911 11.65593,2.483324 15.67024,3.789826 6.20543,2.019624 17.00083,6.859969 21.91623,9.826599 10.30338,6.218482 16.12672,10.731582 23.89998,18.5225411 7.18286,7.1992214 11.31361,12.4486141 17.14654,21.7899999 1.69543,2.715213 5.62505,10.101785 5.62505,10.573495 0,0.141344 -0.13821,0.256989 -0.30712,0.256989 -0.16892,0 -0.70555,-0.829034 -1.19252,-1.842297 z"
         style="fill:#000000;fill-opacity:1;stroke:none;stroke-width:1.68800461;stroke-miterlimit:4;stroke-dasharray:none;stroke-opacity:1" />
      <path
         inkscape:connector-curvature="0"
         id="path940"
         d="m -148.30319,34.95004 c -0.16945,-0.581469 -2.07681,-1.936114 -4.83067,-3.430833 -4.83303,-2.623237 -14.59887,-6.225253 -20.39437,-7.52223 -1.21409,-0.271702 -1.57468,-0.682081 -0.74134,-0.843685 0.48817,-0.09467 6.42054,1.516221 9.85861,2.677027 4.67047,1.576914 11.22465,4.702834 15.24586,7.271292 0.64756,0.413619 1.27562,0.691326 1.39568,0.617127 0.27591,-0.170527 0.28642,0.178029 0.0139,0.460886 -0.11242,0.11668 -0.24503,0.463367 -0.29469,0.770416 l -0.0903,0.558274 -0.16269,-0.558274 z"
         style="fill:#000000;fill-opacity:1;stroke:none;stroke-width:1.68800461;stroke-miterlimit:4;stroke-dasharray:none;stroke-opacity:1" />
      <path
         inkscape:connector-curvature="0"
         id="path942"
         d="m -186.40747,95.075975 c -0.002,-0.435953 -1.18022,-7.638165 -1.67603,-10.240853 -1.07992,-5.669016 -4.53776,-19.020247 -6.72133,-25.952073 -0.82851,-2.630138 -0.95766,-3.25933 -0.72629,-3.538118 0.33571,-0.404515 0.57784,0.307654 3.46739,10.198436 2.8614,9.79446 4.27594,15.968681 5.65328,24.675633 0.77607,4.905967 0.78405,5.024456 0.33852,5.024456 -0.18422,0 -0.33522,-0.07535 -0.33554,-0.167481 z"
         style="fill:#000000;fill-opacity:1;stroke:none;stroke-width:1.68800461;stroke-miterlimit:4;stroke-dasharray:none;stroke-opacity:1" />
      <path
         inkscape:connector-curvature="0"
         id="path946"
         d="m -135.42009,94.741013 c 0.10238,-0.425912 0.29967,-1.963451 0.90976,-7.09006 0.0512,-0.429875 0.0654,0.926734 0.0317,3.014666 -0.0337,2.087942 -0.13565,3.972114 -0.22649,4.187042 -0.25263,0.597703 -0.86258,0.502452 -0.71496,-0.111648 z"
         style="fill:#000000;fill-opacity:1;stroke:none;stroke-width:1.68800461;stroke-miterlimit:4;stroke-dasharray:none;stroke-opacity:1" />
      <path
         inkscape:connector-curvature="0"
         id="path948"
         d="m -362.03598,94.964318 c -0.14309,-0.423796 -0.74245,-5.535032 -0.98854,-8.429908 -0.88657,-10.429999 -0.2842,-21.227369 1.79392,-32.156491 0.59271,-3.117105 2.28891,-9.775597 3.20696,-12.588997 1.99887,-6.12571 6.51182,-16.480237 9.13137,-20.951074 l 0.56316,-0.961161 1.184,0.09561 1.18397,0.09561 -0.90396,0.205737 c -0.87857,0.199961 -0.94887,0.288197 -2.5033,3.142367 -3.35513,6.160513 -5.53293,11.454672 -8.51098,20.689692 -4.41564,13.693125 -5.89089,31.423018 -3.92985,47.229844 0.18286,1.473833 0.3897,2.95605 0.4597,3.293804 0.097,0.468436 0.0419,0.6141 -0.2325,0.6141 -0.19783,0 -0.40213,-0.125608 -0.45395,-0.279138 z"
         style="fill:#000000;fill-opacity:1;stroke:none;stroke-width:1.68800461;stroke-miterlimit:4;stroke-dasharray:none;stroke-opacity:1" />
      <path
         inkscape:connector-curvature="0"
         id="path950"
         d="m -289.87751,-29.915524 c -0.0908,-0.236556 0.0299,-0.419262 0.36197,-0.547774 0.27401,-0.106057 1.28438,-0.506696 2.24526,-0.890308 3.18918,-1.273197 10.87285,-3.407485 15.67102,-4.352932 4.967,-0.978713 7.20637,-1.24583 10.16056,-1.211975 1.65807,0.019 2.66296,0.07021 2.23309,0.113798 -9.40282,0.953398 -17.51911,2.686457 -25.34908,5.412743 -2.45833,0.855958 -4.631,1.618187 -4.82815,1.693841 -0.21763,0.08351 -0.41197,-0.0018 -0.49467,-0.217393 z"
         style="fill:#000000;fill-opacity:1;stroke:none;stroke-width:1.68800461;stroke-miterlimit:4;stroke-dasharray:none;stroke-opacity:1" />
      <text
         transform="scale(0.81420385,1.2281937)"
         id="text954"
         y="76.975662"
         x="-554.94757"
         style="font-style:normal;font-weight:normal;font-size:10.85813141px;line-height:1.25;font-family:sans-serif;letter-spacing:0px;word-spacing:0px;fill:#000000;fill-opacity:1;stroke:none;stroke-width:0.27145332"
         xml:space="preserve"><tspan
           style="font-style:normal;font-variant:normal;font-weight:normal;font-stretch:normal;font-size:52.11903381px;font-family:'Gill Sans Ultra Bold';-inkscape-font-specification:'Gill Sans Ultra Bold, ';fill:#000000;stroke-width:0.27145332"
           y="76.975662"
           x="-554.94757"
           id="tspan952"
           sodipodi:role="line">LA</tspan></text>
      <text
         transform="scale(0.82070945,1.218458)"
         id="text954-7"
         y="135.09669"
         x="-598.48779"
         style="font-style:normal;font-weight:normal;font-size:15.01886368px;line-height:1.25;font-family:sans-serif;letter-spacing:0px;word-spacing:0px;fill:#000000;fill-opacity:1;stroke:none;stroke-width:0.37547165"
         xml:space="preserve"><tspan
           style="font-style:normal;font-variant:normal;font-weight:normal;font-stretch:normal;font-size:72.09056091px;font-family:'Gill Sans Ultra Bold';-inkscape-font-specification:'Gill Sans Ultra Bold, ';fill:#000000;stroke-width:0.37547165"
           y="135.09669"
           x="-598.48779"
           id="tspan952-5"
           sodipodi:role="line">CANCHITA</tspan></text>
    </g>
  </g>
</svg>
